<svg width="332" height="289" viewBox="0 0 332 289" fill="none" xmlns="http://www.w3.org/2000/svg">
<path d="M148.181 141.54C146.45 142.676 144 141.578 144 139.666L144 74.3345C144 72.4219 146.45 71.3237 148.181 72.4603L197.936 105.124C199.355 106.056 199.355 107.941 197.936 108.873L148.181 141.54Z" fill="#45AEFF"/>
<path fill-rule="evenodd" clip-rule="evenodd" d="M205.965 34.6028C227.437 47.74 241.765 71.4089 241.765 98.4244C241.765 139.716 208.292 173.19 167 173.19C125.708 173.19 92.2348 139.716 92.2348 98.4244C92.2348 71.4108 106.561 47.7434 128.031 34.6056C127.689 34.9319 127.356 35.2747 127.035 35.6341C121.492 41.8246 121.217 50.555 126.421 55.1341C131.624 59.7132 140.335 58.4069 145.878 52.2164C146.885 51.0916 147.718 49.8829 148.376 48.6305L157.085 57.3395C157.866 58.1205 159.132 58.1205 159.913 57.3395L167.999 49.2537L176.085 57.3395C176.866 58.1205 178.132 58.1205 178.913 57.3395L186.357 49.8958C186.869 50.6981 187.457 51.4754 188.121 52.2164C193.663 58.4069 202.374 59.7132 207.578 55.1341C212.781 50.555 212.506 41.8246 206.964 35.6341C206.641 35.2737 206.307 34.9298 205.965 34.6028ZM203.424 96.7648L153.669 64.1008C149.667 61.4734 144.971 61.5059 141.351 63.1288C137.719 64.757 134 68.6373 134 74.3345L134 139.666C134 145.363 137.719 149.243 141.351 150.871C144.972 152.494 149.667 152.527 153.67 149.899L203.424 117.232C210.859 112.351 210.858 101.646 203.424 96.7648Z" fill="#45AEFF"/>
<path d="M136.28 30.2416C145.652 26.0127 156.051 23.6591 167 23.6591C177.95 23.6591 188.349 26.0129 197.721 30.2421C193.993 29.5187 190.259 30.2941 187.507 32.7164C183.883 35.905 182.916 41.1064 184.534 46.0615L177.499 53.0968L169.413 45.011C168.632 44.23 167.366 44.23 166.585 45.011L158.499 53.0968L149.89 44.4873C150.848 40.0311 149.733 35.5685 146.492 32.7164C143.74 30.2947 140.007 29.5191 136.28 30.2416Z" fill="#45AEFF"/>
<path fill-rule="evenodd" clip-rule="evenodd" d="M94.1359 0.247488C91.3638 -0.765284 88.4869 1.47024 88.7836 4.40668L92.4913 41.1065C80.2689 56.9712 73 76.8489 73 98.4244C73 150.339 115.085 192.424 167 192.424C218.915 192.424 261 150.339 261 98.4244C261 76.9004 253.766 57.0661 241.596 41.2202L245.315 4.40668C245.612 1.47024 242.735 -0.765284 239.963 0.247488L205.737 12.7516C193.925 7.40251 180.81 4.42438 167 4.42438C153.207 4.42438 140.108 7.39509 128.308 12.7316L94.1359 0.247488ZM252.904 98.4244C252.904 145.868 214.443 184.328 167 184.328C119.557 184.328 81.096 145.868 81.096 98.4244C81.096 50.9809 119.557 12.5204 167 12.5204C214.443 12.5204 252.904 50.9809 252.904 98.4244Z" fill="#45AEFF"/>
<path d="M144 74.3345C144 72.4219 146.45 71.3237 148.181 72.4603L197.936 105.124C199.355 106.056 199.355 107.941 197.936 108.873L148.181 141.54C146.45 142.676 144 141.578 144 139.666L144 74.3345Z" fill="white"/>
<path d="M63.7344 237.438L56.6641 257.75C54.737 261.917 51.4948 264 46.9375 264H27.1719C23.7083 264 21.7812 262.854 21.3906 260.562C19.4896 262.854 16.7422 264 13.1484 264H6.19531C2.34115 264 0.414062 262.633 0.414062 259.898C0.414062 259.247 0.557292 258.531 0.84375 257.75L7.95312 237.438H22.1328L14.8281 257.75H21.625L28.9297 237.438H42.9141L35.8047 257.75H42.4453L49.7109 237.438H63.7344ZM94.2031 221.422C94.2031 224.026 93.1875 226.24 91.1562 228.062C89.151 229.885 86.7292 230.797 83.8906 230.797C81 230.797 78.5391 229.885 76.5078 228.062C74.5026 226.24 73.5 224.026 73.5 221.422C73.5 218.844 74.5026 216.643 76.5078 214.82C78.5391 212.997 81 212.086 83.8906 212.086C86.7292 212.086 89.151 212.997 91.1562 214.82C93.1875 216.643 94.2031 218.844 94.2031 221.422ZM97.0156 257.75C96.3385 260.042 94.9323 261.734 92.7969 262.828C91.2604 263.609 89.5938 264 87.7969 264H72.3672C68.6432 264 66.7812 262.438 66.7812 259.312C66.7812 258.427 66.9635 257.477 67.3281 256.461L74.125 237.438H88.3047L81.0781 257.75H97.0156ZM167.719 237.438C166 241.604 163.122 243.688 159.086 243.688H137.992C136.977 251.135 133.135 256.617 126.469 260.133C121.573 262.711 115.857 264 109.32 264H102.211C100.935 264 99.8151 263.688 98.8516 263.062C97.5755 262.229 96.9375 260.966 96.9375 259.273C96.9375 258.31 97.1458 257.216 97.5625 255.992L111.508 216.891H125.57L111 257.672C116.599 257.802 120.583 255.562 122.953 250.953C120.531 249.443 119.32 247.385 119.32 244.781C119.32 242.75 120.102 241.018 121.664 239.586C123.253 238.154 125.141 237.438 127.328 237.438H167.719ZM195.648 257.75C195.102 259.911 193.904 261.552 192.055 262.672C190.596 263.557 189.047 264 187.406 264H171.078C167.25 264 165.336 262.776 165.336 260.328C163.305 262.776 160.557 264 157.094 264H150.219C148.109 264 146.469 263.453 145.297 262.359C144.203 261.344 143.656 260.003 143.656 258.336C143.656 257.398 143.839 256.435 144.203 255.445L150.766 237.438H164.945L157.641 257.75H165.57L172.836 237.438H186.859L179.75 257.75H195.648ZM230.258 257.75C229.034 261.917 225.779 264 220.492 264H200.57C196.716 264 194.789 262.646 194.789 259.938C194.789 259.26 194.932 258.531 195.219 257.75L200.18 243.688H193.773L196.234 237.438C200.792 236.266 204.177 234.768 206.391 232.945C208.891 230.888 211.56 227.164 214.398 221.773H222.016L216.508 237.438H226.586C224.971 241.604 221.69 243.688 216.742 243.688H214.164L209.281 257.75H230.258ZM280.766 257.75C279.516 261.917 276.326 264 271.195 264H256.391C252.172 264 250.062 262.646 250.062 259.938C247.224 263.167 243.734 264.781 239.594 264.781C236.547 264.781 234.073 263.844 232.172 261.969C230.271 260.094 229.32 257.646 229.32 254.625C229.32 249.182 231.404 244.885 235.57 241.734C239.346 238.87 244.021 237.438 249.594 237.438H271.898L264.555 257.75H280.766ZM255.57 243.688H246.938L244.203 252.789C244.047 253.362 243.969 253.883 243.969 254.352C243.969 256.617 246.182 257.75 250.609 257.75L255.57 243.688ZM331.82 257.75C331.586 259.755 330.531 261.331 328.656 262.477C326.99 263.492 325.023 264 322.758 264H301.469C298.266 264 296.625 262.346 296.547 259.039C297.745 258.544 298.956 258.062 300.18 257.594C301.898 256.812 303.201 255.862 304.086 254.742C305.284 253.258 305.883 251.357 305.883 249.039C305.883 247.607 305.219 246.344 303.891 245.25C302.562 244.156 301.091 243.635 299.477 243.688L287.25 279.039H273.07L290.688 227.984H304.828L301.586 237.438C307.445 237.438 311.326 237.711 313.227 238.258C317.862 239.534 320.089 242.516 319.906 247.203C319.802 249.286 318.878 251.383 317.133 253.492C315.336 255.68 313.266 257.099 310.922 257.75H331.82Z" fill="white"/>
</svg>
