<svg width="20" height="20" viewBox="0 0 20 20" fill="none" xmlns="http://www.w3.org/2000/svg">
<g clip-path="url(#clip0_482_3067)">
<path fill-rule="evenodd" clip-rule="evenodd" d="M10 3.91304C9.07751 3.91304 8.19279 4.2795 7.54049 4.9318C6.88819 5.5841 6.52174 6.46881 6.52174 7.3913C6.52174 8.3138 6.88819 9.19851 7.54049 9.85081C8.19279 10.5031 9.07751 10.8696 10 10.8696C10.9225 10.8696 11.8072 10.5031 12.4595 9.85081C13.1118 9.19851 13.4783 8.3138 13.4783 7.3913C13.4783 6.46881 13.1118 5.5841 12.4595 4.9318C11.8072 4.2795 10.9225 3.91304 10 3.91304ZM8.77024 6.16155C9.0964 5.8354 9.53875 5.65217 10 5.65217C10.4612 5.65217 10.9036 5.8354 11.2297 6.16155C11.5559 6.4877 11.7391 6.93006 11.7391 7.3913C11.7391 7.85255 11.5559 8.29491 11.2297 8.62106C10.9036 8.94721 10.4612 9.13043 10 9.13043C9.53875 9.13043 9.09639 8.94721 8.77024 8.62106C8.44409 8.29491 8.26087 7.85255 8.26087 7.3913C8.26087 6.93006 8.44409 6.4877 8.77024 6.16155Z" fill="white"/>
<path fill-rule="evenodd" clip-rule="evenodd" d="M10 0C4.47702 0 0 4.47702 0 10C0 15.523 4.47702 20 10 20C15.523 20 20 15.523 20 10C20 4.47702 15.523 0 10 0ZM2.6087 10C2.6087 5.91776 5.91776 2.6087 10 2.6087C14.0822 2.6087 17.3913 5.91776 17.3913 10C17.3913 11.4516 16.9729 12.8055 16.25 13.9476C16.055 13.8102 15.834 13.6677 15.5858 13.5259C14.3777 12.8355 12.5493 12.1739 10 12.1739C7.45073 12.1739 5.62252 12.8355 4.41456 13.5259C4.16632 13.6678 3.9452 13.8104 3.75015 13.9479C3.0272 12.8057 2.6087 11.4518 2.6087 10ZM4.84994 15.3018C6.18101 16.595 7.99748 17.3913 10 17.3913C12.0026 17.3913 13.8192 16.5949 15.1503 15.3016C15.0224 15.2151 14.8801 15.1257 14.7229 15.0358C13.7658 14.4889 12.2333 13.913 10 13.913C7.76665 13.913 6.23443 14.4889 5.27761 15.0358C5.12025 15.1258 4.97785 15.2153 4.84994 15.3018Z" fill="white"/>
</g>
<defs>
<clipPath id="clip0_482_3067">
<rect width="20" height="20" fill="white"/>
</clipPath>
</defs>
</svg>
