<svg width="20" height="20" viewBox="0 0 20 20" fill="none" xmlns="http://www.w3.org/2000/svg">
<path fill-rule="evenodd" clip-rule="evenodd" d="M7.69661 0C7.38416 0 7.11852 0.22547 7.07136 0.530706L6.59051 3.64319C6.58451 3.68202 6.56036 3.71575 6.52552 3.73466C6.43144 3.78572 6.33864 3.83879 6.24717 3.89382C6.21316 3.91428 6.17145 3.91814 6.13436 3.90385L3.16497 2.75979C2.87394 2.64766 2.54365 2.76228 2.38747 3.02961L0.0847771 6.97097C-0.071451 7.23838 -0.00667721 7.57845 0.23724 7.77142L2.72605 9.74045C2.75709 9.765 2.77457 9.80255 2.7737 9.84183C2.77255 9.89438 2.77197 9.94708 2.77197 9.99991C2.77197 10.0529 2.77255 10.1058 2.77371 10.1585C2.77458 10.1977 2.75711 10.2353 2.72609 10.2598L0.237708 12.2299C-0.00607691 12.4229 -0.0707712 12.7629 0.0854155 13.0302L2.3881 16.9716C2.54433 17.239 2.87474 17.3536 3.16582 17.2413L6.13477 16.0963C6.17187 16.082 6.21359 16.0858 6.24761 16.1063C6.33893 16.1612 6.43158 16.2142 6.52549 16.2652C6.56033 16.2841 6.58448 16.3178 6.59048 16.3566L7.07136 19.4693C7.11852 19.7745 7.38416 20 7.69661 20H12.302C12.6144 20 12.88 19.7746 12.9272 19.4695L13.4091 16.3573C13.4151 16.3185 13.4393 16.2848 13.4741 16.2659C13.5686 16.2146 13.6618 16.1614 13.7536 16.1061C13.7876 16.0857 13.8293 16.0818 13.8664 16.0961L16.8342 17.2407C17.1253 17.353 17.4557 17.2384 17.6119 16.971L19.9146 13.0296C20.0708 12.7623 20.0061 12.4223 19.7623 12.2293L17.2748 10.26C17.2438 10.2354 17.2264 10.1979 17.2272 10.1586C17.2284 10.1058 17.229 10.0529 17.229 9.99991C17.229 9.94704 17.2284 9.8943 17.2272 9.8417C17.2264 9.80241 17.2439 9.76487 17.2749 9.74031L19.7628 7.77203C20.0067 7.57906 20.0714 7.23898 19.9152 6.97158L17.6125 3.03022C17.4563 2.76289 17.1261 2.64827 16.835 2.7604L13.8668 3.904C13.8297 3.91829 13.788 3.91443 13.754 3.89397C13.662 3.83863 13.5687 3.78527 13.4741 3.73394C13.4393 3.71504 13.4151 3.68133 13.4091 3.64251L12.9272 0.530493C12.88 0.225354 12.6144 0 12.302 0H7.69661ZM10 14.0184C12.2458 14.0184 14.0664 12.2193 14.0664 9.99996C14.0664 7.78063 12.2458 5.98151 10 5.98151C7.75423 5.98151 5.93365 7.78063 5.93365 9.99996C5.93365 12.2193 7.75423 14.0184 10 14.0184Z" fill="#F5F5F5"/>
</svg>
