<svg width="20" height="20" viewBox="0 0 20 20" fill="none" xmlns="http://www.w3.org/2000/svg">
<g clip-path="url(#clip0_344_1453)">
<path fill-rule="evenodd" clip-rule="evenodd" d="M10.6 13.6263C14.0137 12.7837 16.25 9.79625 16.25 6.25C16.25 4.5924 15.5915 3.00269 14.4194 1.83058C13.2473 0.65848 11.6576 0 10 0C8.3424 0 6.75269 0.65848 5.58058 1.83058C4.40848 3.00269 3.75 4.5924 3.75 6.25C3.75 9.79625 5.98625 12.7837 9.4 13.6263L9.095 14.235C9.07661 14.2718 9.06565 14.3118 9.06274 14.3528C9.05982 14.3938 9.06501 14.435 9.07802 14.474C9.10427 14.5528 9.16074 14.6179 9.235 14.655C9.30926 14.6921 9.39523 14.6982 9.474 14.672C9.55276 14.6457 9.61787 14.5893 9.655 14.515L9.705 14.415C9.71625 14.6275 9.735 14.8088 9.76875 14.9775C9.85375 15.4075 10.0287 15.755 10.3287 16.355L10.345 16.39C10.61 16.9175 10.5725 17.4525 10.4075 17.9475C10.2388 18.45 9.95 18.8862 9.74 19.2013C9.69392 19.2702 9.67712 19.3546 9.69329 19.436C9.70947 19.5173 9.75729 19.5889 9.82625 19.635C9.89521 19.6811 9.97964 19.6979 10.061 19.6817C10.1423 19.6655 10.2139 19.6177 10.26 19.5487L10.265 19.54C10.4725 19.23 10.8038 18.7325 11 18.1462C11.2 17.5475 11.265 16.8325 10.905 16.11C10.5825 15.4662 10.4488 15.195 10.3813 14.855C10.3585 14.7356 10.343 14.615 10.335 14.4938L10.345 14.515C10.3821 14.5893 10.4472 14.6457 10.526 14.672C10.6048 14.6982 10.6907 14.6921 10.765 14.655C10.8393 14.6179 10.8957 14.5528 10.922 14.474C10.9482 14.3952 10.9421 14.3093 10.905 14.235L10.6 13.6263ZM5.44 4.195C5.79264 3.41403 6.33988 2.73667 7.02931 2.2278C7.71875 1.71893 8.52729 1.39559 9.3775 1.28875C9.7175 1.24625 10 1.53 10 1.875C10 2.22 9.7175 2.495 9.3775 2.5525C8.19 2.755 7.19125 3.5275 6.66125 4.57375C6.60275 4.69783 6.51108 4.80332 6.39636 4.87855C6.28165 4.95377 6.14837 4.99581 6.01125 5C5.57875 5 5.2625 4.58875 5.44 4.195Z" fill="white"/>
</g>
<defs>
<clipPath id="clip0_344_1453">
<rect width="20" height="20" fill="white"/>
</clipPath>
</defs>
</svg>
