<svg width="19" height="19" viewBox="0 0 19 19" fill="none" xmlns="http://www.w3.org/2000/svg">
<path d="M5.00007 16.596C4.70806 17.5388 6.04515 18.596 7.00006 17.596C7.78648 16.7724 12.5756 11.596 13.0378 11.096C13.5 10.596 13.5 10.596 13.5001 10.096L13.5001 1.59599C13.5 0.595993 13.5 0.595993 12.5001 0.595994L2.21628 0.595994C1.50007 0.596005 1.50007 0.596005 1.44451 1.096L0.500067 9.59599C0.500067 9.59599 0.500067 10.596 1.50007 10.596L6.50006 10.596C7.00006 10.596 7.00006 10.596 6.83675 11.0538C6.67343 11.5116 5.29208 15.6532 5.00007 16.596Z" fill="white"/>
<path d="M15 0.595995L15 10.596L18 10.596L18 0.595995L17.5 0.595995L15 0.595995Z" fill="white"/>
<path d="M5.00007 16.596C4.70806 17.5388 6.04515 18.596 7.00006 17.596C7.78648 16.7724 12.5756 11.596 13.0378 11.096C13.5 10.596 13.5 10.596 13.5001 10.096L13.5001 1.59599C13.5 0.595993 13.5 0.595993 12.5001 0.595994L2.21628 0.595994C1.50007 0.596005 1.50007 0.596005 1.44451 1.096L0.500067 9.59599C0.500067 9.59599 0.500067 10.596 1.50007 10.596L6.50006 10.596C7.00006 10.596 7.00006 10.596 6.83675 11.0538C6.67343 11.5116 5.29208 15.6532 5.00007 16.596Z" stroke="white" stroke-linejoin="round"/>
<path d="M15 0.595995L15 10.596L18 10.596L18 0.595995L17.5 0.595995L15 0.595995Z" stroke="white" stroke-linejoin="round"/>
</svg>
