<svg width="19" height="19" viewBox="0 0 19 19" fill="none" xmlns="http://www.w3.org/2000/svg">
<path d="M5.50001 17C5.208 17.9428 6.54509 19 7.5 18C8.28642 17.1764 13.0756 12 13.5377 11.5C13.9999 11 13.9999 11 14 10.5L14 2C13.9999 1 13.9999 1 13 1L2.71622 1C2.00001 1.00001 2.00001 1.00001 1.94445 1.50001L1.00001 10C1.00001 10 1.00001 11 2.00001 11L7 11C7.5 11 7.5 11 7.33668 11.4578C7.17337 11.9156 5.79201 16.0572 5.50001 17Z" fill="white"/>
<path d="M15.4999 1L15.4999 11L18.4999 11L18.4999 1L17.9999 1L15.4999 1Z" fill="white"/>
<path d="M5.50001 17C5.208 17.9428 6.54509 19 7.5 18C8.28642 17.1764 13.0756 12 13.5377 11.5C13.9999 11 13.9999 11 14 10.5L14 2C13.9999 1 13.9999 1 13 1L2.71622 1C2.00001 1.00001 2.00001 1.00001 1.94445 1.50001L1.00001 10C1.00001 10 1.00001 11 2.00001 11L7 11C7.5 11 7.5 11 7.33668 11.4578C7.17337 11.9156 5.79201 16.0572 5.50001 17Z" stroke="white" stroke-linejoin="round"/>
<path d="M15.4999 1L15.4999 11L18.4999 11L18.4999 1L17.9999 1L15.4999 1Z" stroke="white" stroke-linejoin="round"/>
</svg>
