<svg width="18" height="19" viewBox="0 0 18 19" fill="none" xmlns="http://www.w3.org/2000/svg">
<g clip-path="url(#clip0_339_3111)">
<path d="M9 0.896484C4.02975 0.896484 0 4.94699 0 9.94285C0 14.4781 3.324 18.2233 7.6545 18.8776V12.3401H5.42775V9.96245H7.6545V8.38009C7.6545 5.76041 8.92425 4.61077 11.0903 4.61077C12.1275 4.61077 12.6765 4.68842 12.936 4.7231V6.79848H11.4585C10.539 6.79848 10.218 7.67523 10.218 8.66279V9.96245H12.9127L12.5475 12.3401H10.218V18.8965C14.6108 18.2979 18 14.5226 18 9.94285C18 4.94699 13.9703 0.896484 9 0.896484Z" fill="#45AEFF"/>
</g>
<defs>
<clipPath id="clip0_339_3111">
<rect width="18" height="18" fill="white" transform="translate(0 0.896484)"/>
</clipPath>
</defs>
</svg>
