<svg width="19" height="19" viewBox="0 0 19 19" fill="none" xmlns="http://www.w3.org/2000/svg">
<path d="M18.6632 0.598504C18.6291 0.262334 18.3452 0 18 0H12.6667C12.2985 0 12 0.298477 12 0.666666V2.66667C12 3.03486 12.2985 3.33333 12.6667 3.33333L15.2 3.33333C15.2736 3.33333 15.3333 3.39303 15.3333 3.46667V6C15.3333 6.36819 15.6318 6.66667 16 6.66667H18C18.3682 6.66667 18.6667 6.36819 18.6667 6V0.666667C18.6667 0.643655 18.6655 0.620916 18.6632 0.598504Z" fill="#F5F5F5"/>
<path d="M15.3333 15.2C15.3333 15.2736 15.2736 15.3333 15.2 15.3333L12.6667 15.3333C12.2985 15.3333 12 15.6318 12 16V18C12 18.3682 12.2985 18.6667 12.6667 18.6667L18 18.6667C18.3682 18.6667 18.6667 18.3682 18.6667 18V12.6667C18.6667 12.2985 18.3682 12 18 12H16C15.6318 12 15.3333 12.2985 15.3333 12.6667V15.2Z" fill="#F5F5F5"/>
<path d="M6 15.3333H3.46667C3.39303 15.3333 3.33333 15.2736 3.33333 15.2V12.6667C3.33333 12.2985 3.03486 12 2.66667 12H0.666667C0.298477 12 0 12.2985 0 12.6667V18C0 18.3682 0.298477 18.6667 0.666667 18.6667H6C6.36819 18.6667 6.66667 18.3682 6.66667 18V16C6.66667 15.6318 6.36819 15.3333 6 15.3333Z" fill="#F5F5F5"/>
<path d="M3.33333 6V3.46667C3.33333 3.39303 3.39303 3.33333 3.46667 3.33333L6 3.33333C6.36819 3.33333 6.66667 3.03486 6.66667 2.66667V0.666667C6.66667 0.298477 6.36819 0 6 0H0.666667C0.298477 0 0 0.298477 0 0.666667V6C0 6.36819 0.298477 6.66667 0.666667 6.66667H2.66667C3.03486 6.66667 3.33333 6.36819 3.33333 6Z" fill="#F5F5F5"/>
</svg>
