<svg width="19" height="19" viewBox="0 0 19 19" fill="none" xmlns="http://www.w3.org/2000/svg">
<path d="M13.9999 1.904C14.2919 0.96116 12.9549 -0.0960087 11.9999 0.904002C11.2135 1.72756 6.42438 6.90401 5.96219 7.40401C5.5 7.90401 5.5 7.90401 5.49994 8.40401V16.904C5.49999 17.904 5.5 17.904 6.49994 17.904H16.7837C17.4999 17.904 17.4999 17.904 17.5555 17.404L18.4999 8.904C18.4999 8.904 18.4999 7.904 17.4999 7.904L12.4999 7.90399C11.9999 7.90399 11.9999 7.90399 12.1633 7.44618C12.3266 6.98836 13.7079 2.84684 13.9999 1.904Z" fill="white"/>
<path d="M4 17.904V7.90399L1 7.904V17.904H1.5H4Z" fill="white"/>
<path d="M13.9999 1.904C14.2919 0.96116 12.9549 -0.0960087 11.9999 0.904002C11.2135 1.72756 6.42438 6.90401 5.96219 7.40401C5.5 7.90401 5.5 7.90401 5.49994 8.40401V16.904C5.49999 17.904 5.5 17.904 6.49994 17.904H16.7837C17.4999 17.904 17.4999 17.904 17.5555 17.404L18.4999 8.904C18.4999 8.904 18.4999 7.904 17.4999 7.904L12.4999 7.90399C11.9999 7.90399 11.9999 7.90399 12.1633 7.44618C12.3266 6.98836 13.7079 2.84684 13.9999 1.904Z" stroke="white" stroke-linejoin="round"/>
<path d="M4 17.904V7.90399L1 7.904V17.904H1.5H4Z" stroke="white" stroke-linejoin="round"/>
</svg>
