<svg width="19" height="19" viewBox="0 0 19 19" fill="none" xmlns="http://www.w3.org/2000/svg">
<path d="M13.9999 2.404C14.2919 1.46116 12.9549 0.403991 11.9999 1.404C11.2135 2.22756 6.42438 7.40401 5.96219 7.90401C5.5 8.40401 5.5 8.40401 5.49994 8.90401V17.404C5.49999 18.404 5.5 18.404 6.49994 18.404H16.7837C17.4999 18.404 17.4999 18.404 17.5555 17.904L18.4999 9.404C18.4999 9.404 18.4999 8.404 17.4999 8.404L12.4999 8.40399C11.9999 8.40399 11.9999 8.40399 12.1633 7.94618C12.3266 7.48836 13.7079 3.34684 13.9999 2.404Z" fill="white"/>
<path d="M4 18.404V8.40399L1 8.404V18.404H1.5H4Z" fill="white"/>
<path d="M13.9999 2.404C14.2919 1.46116 12.9549 0.403991 11.9999 1.404C11.2135 2.22756 6.42438 7.40401 5.96219 7.90401C5.5 8.40401 5.5 8.40401 5.49994 8.90401V17.404C5.49999 18.404 5.5 18.404 6.49994 18.404H16.7837C17.4999 18.404 17.4999 18.404 17.5555 17.904L18.4999 9.404C18.4999 9.404 18.4999 8.404 17.4999 8.404L12.4999 8.40399C11.9999 8.40399 11.9999 8.40399 12.1633 7.94618C12.3266 7.48836 13.7079 3.34684 13.9999 2.404Z" stroke="white" stroke-linejoin="round"/>
<path d="M4 18.404V8.40399L1 8.404V18.404H1.5H4Z" stroke="white" stroke-linejoin="round"/>
</svg>
