<svg width="20" height="10" viewBox="0 0 20 10" fill="none" xmlns="http://www.w3.org/2000/svg">
<path d="M5 10C3.61667 10 2.43733 9.51234 1.462 8.537C0.486667 7.56167 -0.000665984 6.38267 6.8306e-07 5C6.8306e-07 3.61667 0.487667 2.43734 1.463 1.462C2.43833 0.48667 3.61733 -0.000663206 5 3.4602e-06H8C8.28333 3.4602e-06 8.521 0.0960036 8.713 0.288004C8.905 0.480004 9.00067 0.717337 9 1C9 1.28334 8.904 1.521 8.712 1.713C8.52 1.905 8.28267 2.00067 8 2H5C4.16667 2 3.45833 2.29167 2.875 2.875C2.29167 3.45834 2 4.16667 2 5C2 5.83334 2.29167 6.54167 2.875 7.125C3.45833 7.70834 4.16667 8 5 8H8C8.28333 8 8.521 8.096 8.713 8.288C8.905 8.48 9.00067 8.71734 9 9C9 9.28334 8.904 9.521 8.712 9.713C8.52 9.905 8.28267 10.0007 8 10H5ZM7 6C6.71667 6 6.479 5.904 6.287 5.712C6.095 5.52 5.99933 5.28267 6 5C6 4.71667 6.096 4.479 6.288 4.287C6.48 4.095 6.71733 3.99934 7 4H13C13.2833 4 13.521 4.096 13.713 4.288C13.905 4.48 14.0007 4.71734 14 5C14 5.28334 13.904 5.521 13.712 5.713C13.52 5.905 13.2827 6.00067 13 6H7ZM12 10C11.7167 10 11.479 9.904 11.287 9.712C11.095 9.52 10.9993 9.28267 11 9C11 8.71667 11.096 8.479 11.288 8.287C11.48 8.095 11.7173 7.99934 12 8H15C15.8333 8 16.5417 7.70834 17.125 7.125C17.7083 6.54167 18 5.83334 18 5C18 4.16667 17.7083 3.45834 17.125 2.875C16.5417 2.29167 15.8333 2 15 2H12C11.7167 2 11.479 1.904 11.287 1.712C11.095 1.52 10.9993 1.28267 11 1C11 0.71667 11.096 0.479004 11.288 0.287004C11.48 0.0950036 11.7173 -0.000663206 12 3.4602e-06H15C16.3833 3.4602e-06 17.5627 0.48767 18.538 1.463C19.5133 2.43834 20.0007 3.61734 20 5C20 6.38334 19.5123 7.56267 18.537 8.538C17.5617 9.51334 16.3827 10.0007 15 10H12Z" fill="white"/>
</svg>
