<svg width="20" height="20" viewBox="0 0 20 20" fill="none" xmlns="http://www.w3.org/2000/svg">
<path d="M13.3334 7.33334C12.9652 7.33334 12.6667 7.03486 12.6667 6.66667L12.6667 1.33334C12.6667 0.965149 12.9652 0.666672 13.3334 0.666672H15.3334C15.7015 0.666672 16 0.965149 16 1.33334V3.86667C16 3.94031 16.0597 4.00001 16.1334 4.00001L18.6667 4.00001C19.0349 4.00001 19.3334 4.29848 19.3334 4.66667V6.66667C19.3334 7.03486 19.0349 7.33334 18.6667 7.33334L13.3334 7.33334Z" fill="#F5F5F5"/>
<path d="M7.33335 13.3333C7.33335 12.9651 7.03488 12.6667 6.66669 12.6667H1.33335C0.965164 12.6667 0.666687 12.9651 0.666687 13.3333V15.3333C0.666687 15.7015 0.965164 16 1.33335 16H3.86669C3.94032 16 4.00002 16.0597 4.00002 16.1333L4.00002 18.6667C4.00002 19.0349 4.2985 19.3333 4.66669 19.3333H6.66669C7.03488 19.3333 7.33335 19.0349 7.33335 18.6667L7.33335 13.3333Z" fill="#F5F5F5"/>
<path d="M12.6667 18.6667C12.6667 19.0349 12.9652 19.3333 13.3334 19.3333H15.3334C15.7015 19.3333 16 19.0349 16 18.6667V16.1333C16 16.0597 16.0597 16 16.1334 16H18.6667C19.0349 16 19.3334 15.7015 19.3334 15.3333V13.3333C19.3334 12.9652 19.0349 12.6667 18.6667 12.6667L13.3334 12.6667C12.9652 12.6667 12.6667 12.9651 12.6667 13.3333L12.6667 18.6667Z" fill="#F5F5F5"/>
<path d="M4.66669 7.33334H6.66669C7.03488 7.33334 7.33335 7.03486 7.33335 6.66667L7.33335 4.66667V1.33334C7.33335 0.965149 7.03488 0.666672 6.66669 0.666672H4.66669C4.2985 0.666672 4.00002 0.965149 4.00002 1.33334L4.00002 3.86667C4.00002 3.94031 3.94033 4 3.86669 4L1.33335 4C0.965164 4 0.666687 4.29848 0.666687 4.66667V6.66667C0.666687 7.03486 0.965164 7.33334 1.33335 7.33334L4.66669 7.33334Z" fill="#F5F5F5"/>
</svg>
