<svg width="16" height="3" viewBox="0 0 16 3" fill="none" xmlns="http://www.w3.org/2000/svg">
<path d="M3 1.5C3 2.32843 2.32843 3 1.5 3C0.671573 3 0 2.32843 0 1.5C0 0.671573 0.671573 0 1.5 0C2.32843 0 3 0.671573 3 1.5Z" fill="white"/>
<path d="M9.5 1.5C9.5 2.32843 8.82843 3 8 3C7.17157 3 6.5 2.32843 6.5 1.5C6.5 0.671573 7.17157 0 8 0C8.82843 0 9.5 0.671573 9.5 1.5Z" fill="white"/>
<path d="M16 1.5C16 2.32843 15.3284 3 14.5 3C13.6716 3 13 2.32843 13 1.5C13 0.671573 13.6716 0 14.5 0C15.3284 0 16 0.671573 16 1.5Z" fill="white"/>
</svg>
