<svg width="32" height="32" viewBox="0 0 32 32" fill="none" xmlns="http://www.w3.org/2000/svg">
<path fill-rule="evenodd" clip-rule="evenodd" d="M8.15965 12.2244C8.1589 12.2707 8.15852 12.3173 8.15852 12.364H8.16187C8.18556 13.5494 8.33083 14.599 8.4769 15.6545C8.5311 16.0461 8.58541 16.4386 8.63367 16.839L6.31466 20.1616C5.99475 20.6199 5.74153 21.5044 5.99999 22C6.25846 22.4956 6.98574 22.5201 7.54468 22.5201H24.4552C25.0142 22.5201 25.7415 22.4956 26 22C26.2584 21.5044 26.0052 20.6199 25.6853 20.1616L23.3663 16.839C23.4145 16.4385 23.4688 16.0461 23.523 15.6544C23.6691 14.599 23.8144 13.5494 23.8381 12.364H23.8414C23.8414 12.317 23.8411 12.2702 23.8403 12.2236C23.841 12.1592 23.8414 12.0943 23.8414 12.029H23.8349C23.7502 9.88896 22.854 8.12538 21.4309 6.89792C19.9591 5.62847 18.009 5.00156 16 5.00156C13.9909 5.00156 12.0408 5.62847 10.5691 6.89792C9.14596 8.12539 8.24979 9.88897 8.1651 12.029H8.15851C8.15851 12.0946 8.15889 12.1597 8.15965 12.2244ZM18.7773 24C19.5756 24 20.2462 24.677 19.9011 25.3968C19.6887 25.8396 19.3775 26.242 18.9852 26.5809C18.5928 26.9199 18.127 27.1887 17.6144 27.3722C17.1018 27.5556 16.5524 27.65 15.9975 27.65C15.4426 27.65 14.8932 27.5556 14.3806 27.3722C13.868 27.1887 13.4022 26.9199 13.0098 26.5809C12.6175 26.242 12.3063 25.8396 12.0939 25.3968C11.7488 24.677 12.4194 24 13.2177 24H18.7773Z" fill="white"/>
</svg>
