<svg width="32" height="32" viewBox="0 0 32 32" fill="none" xmlns="http://www.w3.org/2000/svg">
<path d="M16 15H10C9.44772 15 9 15.4477 9 16C9 16.5523 9.44772 17 10 17H16V15Z" fill="white"/>
<path d="M10 21H16V23H10C9.44772 23 9 22.5523 9 22C9 21.4477 9.44772 21 10 21Z" fill="white"/>
<path d="M22.5 11H10C9.44772 11 9 10.5523 9 10C9 9.44772 9.44772 9 10 9H22.5C23.0523 9 23.5 9.44772 23.5 10C23.5 10.5523 23.0523 11 22.5 11Z" fill="white"/>
<path fill-rule="evenodd" clip-rule="evenodd" d="M8.5 10C8.5 9.17157 9.17157 8.5 10 8.5H22.5C23.3284 8.5 24 9.17157 24 10C24 10.8284 23.3284 11.5 22.5 11.5H10C9.17157 11.5 8.5 10.8284 8.5 10ZM10 9.5C9.72386 9.5 9.5 9.72386 9.5 10C9.5 10.2761 9.72386 10.5 10 10.5H22.5C22.7761 10.5 23 10.2761 23 10C23 9.72386 22.7761 9.5 22.5 9.5H10ZM8.5 16C8.5 15.1716 9.17157 14.5 10 14.5H16C16.2761 14.5 16.5 14.7239 16.5 15V17C16.5 17.2761 16.2761 17.5 16 17.5H10C9.17157 17.5 8.5 16.8284 8.5 16ZM10 15.5C9.72386 15.5 9.5 15.7239 9.5 16C9.5 16.2761 9.72386 16.5 10 16.5H15.5V15.5H10ZM8.5 22C8.5 21.1716 9.17157 20.5 10 20.5H16C16.2761 20.5 16.5 20.7239 16.5 21V23C16.5 23.2761 16.2761 23.5 16 23.5H10C9.17157 23.5 8.5 22.8284 8.5 22ZM10 21.5C9.72386 21.5 9.5 21.7239 9.5 22C9.5 22.2761 9.72386 22.5 10 22.5H15.5V21.5H10Z" fill="white"/>
<path d="M19 14.3668C19 14.0663 19.3563 13.8937 19.6082 14.0723L26.8452 19.2052C27.0516 19.3516 27.0516 19.6479 26.8452 19.7943L19.6082 24.9277C19.3564 25.1063 19 24.9337 19 24.6332L19 14.3668Z" fill="white"/>
<path fill-rule="evenodd" clip-rule="evenodd" d="M9 9.5C9 8.67157 9.67157 8 10.5 8H23C23.8284 8 24.5 8.67157 24.5 9.5C24.5 10.3284 23.8284 11 23 11H10.5C9.67157 11 9 10.3284 9 9.5ZM9 15.5C9 14.6716 9.67157 14 10.5 14H16.5C16.7761 14 17 14.2239 17 14.5V16.5C17 16.7761 16.7761 17 16.5 17H10.5C9.67157 17 9 16.3284 9 15.5ZM9 21.5C9 20.6716 9.67157 20 10.5 20H16.5C16.7761 20 17 20.2239 17 20.5V22.5C17 22.7761 16.7761 23 16.5 23H10.5C9.67157 23 9 22.3284 9 21.5Z" fill="white"/>
<path d="M8 9.5C8 10.3284 7.32843 11 6.5 11C5.67157 11 5 10.3284 5 9.5C5 8.67157 5.67157 8 6.5 8C7.32843 8 8 8.67157 8 9.5Z" fill="white"/>
<path d="M8 15.5C8 16.3284 7.32843 17 6.5 17C5.67157 17 5 16.3284 5 15.5C5 14.6716 5.67157 14 6.5 14C7.32843 14 8 14.6716 8 15.5Z" fill="white"/>
<path d="M6.5 23C7.32843 23 8 22.3284 8 21.5C8 20.6716 7.32843 20 6.5 20C5.67157 20 5 20.6716 5 21.5C5 22.3284 5.67157 23 6.5 23Z" fill="white"/>
</svg>
