<svg width="24" height="20" viewBox="0 0 24 20" fill="none" xmlns="http://www.w3.org/2000/svg">
<path fill-rule="evenodd" clip-rule="evenodd" d="M1.71811 10.7108C1.32271 10.3194 1.32271 9.68062 1.71811 9.28928L9.79655 1.2937C10.428 0.668739 11.5 1.11602 11.5 2.00444V7.15244C18.7936 8.35325 23.8368 13.263 22.8846 18.5C21.947 13.3429 17.0529 12.1422 11.5 12.8369V17.9956C11.5 18.884 10.428 19.3313 9.79655 18.7063L1.71811 10.7108Z" fill="white"/>
<path d="M1.71811 9.28928L1.36638 8.93391V8.93391L1.71811 9.28928ZM1.71811 10.7108L2.06984 10.3554L1.71811 10.7108ZM9.79655 1.2937L10.1483 1.64907V1.64907L9.79655 1.2937ZM11.5 7.15244L11.4188 7.6458C11.1772 7.60604 11 7.39724 11 7.15244H11.5ZM22.8846 18.5L23.3766 18.5895C23.3333 18.8272 23.1263 19 22.8846 19C22.643 19 22.4359 18.8272 22.3927 18.5895L22.8846 18.5ZM11.5 12.8369H11C11 12.5848 11.1877 12.3721 11.4379 12.3408L11.5 12.8369ZM9.79655 18.7063L9.44482 19.0617L9.79655 18.7063ZM2.06983 9.64465C1.87214 9.84032 1.87214 10.1597 2.06984 10.3554L1.36638 11.0661C0.773287 10.4791 0.773287 9.52093 1.36638 8.93391L2.06983 9.64465ZM10.1483 1.64907L2.06983 9.64465L1.36638 8.93391L9.44482 0.93833L10.1483 1.64907ZM11 2.00444C11 1.56023 10.464 1.33659 10.1483 1.64907L9.44482 0.93833C10.392 0.000886207 12 0.671811 12 2.00444H11ZM11 7.15244V2.00444H12V7.15244H11ZM22.3927 18.4106C22.8327 15.9906 21.8978 13.6126 19.9328 11.6681C17.9648 9.72052 14.9811 8.23229 11.4188 7.6458L11.5812 6.65909C15.3125 7.2734 18.4972 8.84046 20.6362 10.9573C22.7782 13.077 23.8887 15.7725 23.3766 18.5895L22.3927 18.4106ZM11.4379 12.3408C14.2547 11.9884 16.9671 12.1067 19.1173 13.0133C21.3002 13.9337 22.8761 15.6582 23.3766 18.4106L22.3927 18.5895C21.9555 16.1848 20.6155 14.7303 18.7288 13.9348C16.8093 13.1254 14.2982 12.9907 11.5621 13.3331L11.4379 12.3408ZM11 17.9956V12.8369H12V17.9956H11ZM10.1483 18.351C10.464 18.6635 11 18.4398 11 17.9956H12C12 19.3282 10.392 19.9992 9.44482 19.0617L10.1483 18.351ZM2.06984 10.3554L10.1483 18.351L9.44482 19.0617L1.36638 11.0661L2.06984 10.3554Z" fill="white"/>
</svg>
