<svg width="21" height="20" viewBox="0 0 21 20" fill="none" xmlns="http://www.w3.org/2000/svg">
<path d="M2 1H9.5C10.0523 1 10.5 1.44772 10.5 2V3C10.5 3.55228 10.9477 4 11.5 4H20V14.5H14C13.4477 14.5 13 14.0523 13 13.5V13C13 12.4477 12.5523 12 12 12H3V18C3 18.5523 2.55228 19 2 19C1.44772 19 1 18.5523 1 18V12V2C1 1.44771 1.44772 1 2 1Z" fill="#FBFBFB"/>
<path d="M1 12V2C1 1.44771 1.44772 1 2 1H9.5C10.0523 1 10.5 1.44772 10.5 2V3C10.5 3.55228 10.9477 4 11.5 4H20V14.5H14C13.4477 14.5 13 14.0523 13 13.5V13C13 12.4477 12.5523 12 12 12H3M1 12V18C1 18.5523 1.44772 19 2 19V19C2.55228 19 3 18.5523 3 18V12M1 12H3" stroke="white" stroke-linecap="round" stroke-linejoin="round"/>
</svg>
