<svg width="32" height="32" viewBox="0 0 32 32" fill="none" xmlns="http://www.w3.org/2000/svg">
<path fill-rule="evenodd" clip-rule="evenodd" d="M22.8478 15.1696C22.8478 18.5769 20.0856 21.3391 16.6783 21.3391C13.2709 21.3391 10.5087 18.5769 10.5087 15.1696C10.5087 11.7622 13.2709 9 16.6783 9C20.0856 9 22.8478 11.7622 22.8478 15.1696ZM25.8478 15.1696C25.8478 20.2338 21.7425 24.3391 16.6783 24.3391C14.944 24.3391 13.3223 23.8577 11.9393 23.0212L9.56066 25.3998C8.97487 25.9856 8.02513 25.9856 7.43934 25.3998C6.85355 24.814 6.85355 23.8643 7.43934 23.2785L9.65391 21.0639C8.31507 19.4701 7.5087 17.414 7.5087 15.1696C7.5087 10.1054 11.6141 6 16.6783 6C21.7425 6 25.8478 10.1054 25.8478 15.1696Z" fill="white"/>
</svg>
