<svg width="16" height="4" viewBox="0 0 16 4" fill="none" xmlns="http://www.w3.org/2000/svg">
<path d="M2.99986 2C2.99986 2.82843 2.32829 3.5 1.49986 3.5C0.671436 3.5 -0.000137329 2.82843 -0.000137329 2C-0.000137329 1.17157 0.671436 0.5 1.49986 0.5C2.32829 0.5 2.99986 1.17157 2.99986 2Z" fill="white"/>
<path d="M9.49986 2C9.49986 2.82843 8.82829 3.5 7.99986 3.5C7.17144 3.5 6.49986 2.82843 6.49986 2C6.49986 1.17157 7.17144 0.5 7.99986 0.5C8.82829 0.5 9.49986 1.17157 9.49986 2Z" fill="white"/>
<path d="M15.9999 2C15.9999 2.82843 15.3283 3.5 14.4999 3.5C13.6714 3.5 12.9999 2.82843 12.9999 2C12.9999 1.17157 13.6714 0.5 14.4999 0.5C15.3283 0.5 15.9999 1.17157 15.9999 2Z" fill="white"/>
</svg>
