<svg width="18" height="15" viewBox="0 0 18 15" fill="none" xmlns="http://www.w3.org/2000/svg">
<g clip-path="url(#clip0_339_3113)">
<path d="M18 1.76328C17.3375 2.06291 16.6258 2.26455 15.8789 2.3555C16.6417 1.89018 17.2267 1.15343 17.5022 0.274961C16.7892 0.705734 15.9986 1.01877 15.1568 1.18797C14.4832 0.456859 13.5237 0 12.4618 0C10.4223 0 8.76912 1.68431 8.76912 3.76062C8.76912 4.05533 8.80235 4.34298 8.86466 4.61723C5.79578 4.46072 3.07511 2.96324 1.25303 0.687403C0.935964 1.24297 0.753894 1.88877 0.753894 2.57899C0.753894 3.8833 1.40533 5.03461 2.39598 5.70862C1.79093 5.68888 1.22118 5.51967 0.723434 5.23836C0.723434 5.25458 0.723434 5.26938 0.723434 5.2856C0.723434 7.1081 1.99585 8.62814 3.6857 8.9729C3.37625 9.05891 3.0495 9.10474 2.71236 9.10474C2.4749 9.10474 2.24299 9.08077 2.018 9.03776C2.48806 10.5317 3.85185 11.6196 5.46764 11.6499C4.20422 12.6588 2.61198 13.2602 0.881274 13.2602C0.583593 13.2602 0.289373 13.2426 0 13.2073C1.63448 14.274 3.57494 14.8966 5.66078 14.8966C12.4534 14.8966 16.1668 9.16608 16.1668 4.19633C16.1668 4.03347 16.1634 3.87131 16.1565 3.70986C16.8785 3.17897 17.505 2.51695 18 1.76328Z" fill="#45AEFF"/>
</g>
<defs>
<clipPath id="clip0_339_3113">
<rect width="18" height="14.8966" fill="white"/>
</clipPath>
</defs>
</svg>
