<svg width="24" height="19" viewBox="0 0 24 19" fill="none" xmlns="http://www.w3.org/2000/svg">
<path d="M12 13.3333C14.2091 13.3333 16 11.5425 16 9.33333C16 7.12419 14.2091 5.33333 12 5.33333C9.79086 5.33333 8 7.12419 8 9.33333C8 11.5425 9.79086 13.3333 12 13.3333Z" fill="#B0A99F"/>
<path fill-rule="evenodd" clip-rule="evenodd" d="M24 9.33909C24 12.0043 19.5 18.6667 12 18.6667C4.5 18.6667 0 12.0095 0 9.33909C0 6.6687 4.50447 0 12 0C19.4955 0 24 6.67391 24 9.33909ZM21.3318 9.32672C21.3328 9.335 21.3328 9.34325 21.3318 9.35152C21.3274 9.3904 21.3108 9.50608 21.2485 9.70408C21.1691 9.95621 21.0352 10.2795 20.8327 10.6549C20.4264 11.4082 19.7969 12.2731 18.9567 13.0873C17.2791 14.7131 14.9148 16 12 16C9.08449 16 6.72021 14.7139 5.04298 13.089C4.20295 12.2752 3.57362 11.4106 3.16745 10.6574C2.96499 10.2819 2.83114 9.95856 2.75172 9.70617C2.67942 9.4764 2.66856 9.3576 2.66695 9.3399L2.66695 9.33828C2.66859 9.32045 2.67951 9.20153 2.75188 8.97159C2.83145 8.71873 2.96554 8.39475 3.16831 8.01858C3.57507 7.26396 4.20514 6.39768 5.04577 5.58235C6.72452 3.95412 9.08856 2.66667 12 2.66667C14.9108 2.66667 17.2748 3.95485 18.9539 5.584C19.7947 6.39975 20.4249 7.26636 20.8318 8.02102C21.0346 8.39721 21.1688 8.72107 21.2483 8.97368C21.3107 9.17192 21.3274 9.28778 21.3318 9.32672Z" fill="#B0A99F"/>
</svg>
